<svg width="497" height="115" viewBox="0 0 497 115" fill="none" xmlns="http://www.w3.org/2000/svg">
<path d="M66.9212 61.6895C66.0761 70.6393 62.7727 77.6302 57.011 82.6621C51.2493 87.6556 43.5862 90.1523 34.0218 90.1523C27.3382 90.1523 21.442 88.5775 16.3333 85.4277C11.263 82.2396 7.345 77.7262 4.57938 71.8877C1.81375 66.0492 0.373322 59.2695 0.258087 51.5488V43.7129C0.258087 35.8001 1.66011 28.8285 4.46414 22.7979C7.26818 16.7673 11.2822 12.1195 16.5061 8.85449C21.7685 5.58952 27.8375 3.95703 34.7132 3.95703C43.9703 3.95703 51.4221 6.47298 57.0686 11.5049C62.7151 16.5368 65.9993 23.6429 66.9212 32.8232H52.4016C51.7102 26.7926 49.9433 22.4521 47.1009 19.8018C44.2968 17.113 40.1676 15.7686 34.7132 15.7686C28.3753 15.7686 23.497 18.0924 20.0784 22.7402C16.6982 27.3496 14.9697 34.1292 14.8929 43.0791V50.5117C14.8929 59.5768 16.5061 66.4909 19.7327 71.2539C22.9977 76.0169 27.7607 78.3984 34.0218 78.3984C39.7451 78.3984 44.0471 77.1117 46.928 74.5381C49.8089 71.9645 51.6334 67.6816 52.4016 61.6895H66.9212ZM100.62 89H86.6193V0.5H100.62V89ZM137.892 89H123.891V26.6582H137.892V89ZM123.026 10.4678C123.026 8.31673 123.699 6.5306 125.043 5.10938C126.426 3.68815 128.385 2.97754 130.92 2.97754C133.455 2.97754 135.414 3.68815 136.797 5.10938C138.18 6.5306 138.871 8.31673 138.871 10.4678C138.871 12.5804 138.18 14.3473 136.797 15.7686C135.414 17.1514 133.455 17.8428 130.92 17.8428C128.385 17.8428 126.426 17.1514 125.043 15.7686C123.699 14.3473 123.026 12.5804 123.026 10.4678ZM173.262 26.6582L173.665 33.8604C178.274 28.2907 184.324 25.5059 191.814 25.5059C204.798 25.5059 211.404 32.9385 211.635 47.8037V89H197.634V48.6104C197.634 44.654 196.77 41.7347 195.041 39.8525C193.351 37.932 190.566 36.9717 186.687 36.9717C181.04 36.9717 176.834 39.526 174.068 44.6348V89H160.067V26.6582H173.262ZM254.841 68.9492L267.517 26.6582H282.439L257.664 98.4492C253.861 108.936 247.408 114.179 238.305 114.179C236.269 114.179 234.022 113.833 231.563 113.142V102.31L234.214 102.482C237.748 102.482 240.398 101.829 242.165 100.523C243.97 99.2559 245.392 97.1048 246.429 94.0703L248.445 88.7119L226.551 26.6582H241.646L254.841 68.9492Z" fill="black"/>
<path d="M323.053 52.7588L313.546 62.8418V89H298.969V5.10938H313.546V44.4619L321.612 34.4941L346.157 5.10938H363.788L332.617 42.2725L365.574 89H348.289L323.053 52.7588ZM405.093 90.1523C396.22 90.1523 389.017 87.3675 383.486 81.7979C377.993 76.1898 375.247 68.738 375.247 59.4424V57.7139C375.247 51.4912 376.438 45.9408 378.819 41.0625C381.239 36.1458 384.619 32.3239 388.96 29.5967C393.3 26.8695 398.14 25.5059 403.479 25.5059C411.968 25.5059 418.517 28.2139 423.127 33.6299C427.775 39.0459 430.098 46.709 430.098 56.6191V62.2656H389.363C389.786 67.4128 391.495 71.4844 394.491 74.4805C397.526 77.4766 401.328 78.9746 405.899 78.9746C412.314 78.9746 417.538 76.3818 421.571 71.1963L429.119 78.3984C426.622 82.1243 423.28 85.0244 419.094 87.0986C414.945 89.1344 410.278 90.1523 405.093 90.1523ZM403.422 36.7412C399.581 36.7412 396.469 38.0856 394.088 40.7744C391.745 43.4632 390.247 47.2083 389.594 52.0098H416.27V50.9727C415.963 46.2865 414.715 42.7526 412.525 40.3711C410.336 37.9512 407.301 36.7412 403.422 36.7412ZM469.098 68.9492L481.774 26.6582H496.697L471.922 98.4492C468.119 108.936 461.666 114.179 452.562 114.179C450.526 114.179 448.279 113.833 445.821 113.142V102.31L448.471 102.482C452.005 102.482 454.656 101.829 456.423 100.523C458.228 99.2559 459.649 97.1048 460.686 94.0703L462.703 88.7119L440.808 26.6582H455.904L469.098 68.9492Z" fill="#FF0000"/>
</svg>
