<svg width="1078" height="247" viewBox="0 0 1078 247" fill="none" xmlns="http://www.w3.org/2000/svg">
<path d="M144.99 132.75C143.157 152.167 135.99 167.333 123.49 178.25C110.99 189.083 94.365 194.5 73.615 194.5C59.115 194.5 46.3233 191.083 35.24 184.25C24.24 177.333 15.74 167.542 9.73999 154.875C3.73999 142.208 0.61499 127.5 0.36499 110.75V93.75C0.36499 76.5833 3.40666 61.4583 9.48999 48.375C15.5733 35.2917 24.2817 25.2083 35.615 18.125C47.0317 11.0417 60.1983 7.5 75.115 7.5C95.1983 7.5 111.365 12.9583 123.615 23.875C135.865 34.7917 142.99 50.2083 144.99 70.125H113.49C111.99 57.0417 108.157 47.625 101.99 41.875C95.9067 36.0417 86.9483 33.125 75.115 33.125C61.365 33.125 50.7817 38.1667 43.365 48.25C36.0317 58.25 32.2817 72.9583 32.115 92.375V108.5C32.115 128.167 35.615 143.167 42.615 153.5C49.6983 163.833 60.0317 169 73.615 169C86.0317 169 95.365 166.208 101.615 160.625C107.865 155.042 111.823 145.75 113.49 132.75H144.99ZM218.1 192H187.725V0H218.1V192ZM298.96 192H268.585V56.75H298.96V192ZM266.71 21.625C266.71 16.9583 268.168 13.0833 271.085 10C274.085 6.91667 278.335 5.375 283.835 5.375C289.335 5.375 293.585 6.91667 296.585 10C299.585 13.0833 301.085 16.9583 301.085 21.625C301.085 26.2083 299.585 30.0417 296.585 33.125C293.585 36.125 289.335 37.625 283.835 37.625C278.335 37.625 274.085 36.125 271.085 33.125C268.168 30.0417 266.71 26.2083 266.71 21.625ZM375.695 56.75L376.57 72.375C386.57 60.2917 399.695 54.25 415.945 54.25C444.112 54.25 458.445 70.375 458.945 102.625V192H428.57V104.375C428.57 95.7917 426.695 89.4583 422.945 85.375C419.278 81.2083 413.237 79.125 404.82 79.125C392.57 79.125 383.445 84.6667 377.445 95.75V192H347.07V56.75H375.695ZM552.68 148.5L580.18 56.75H612.555L558.805 212.5C550.555 235.25 536.555 246.625 516.805 246.625C512.388 246.625 507.513 245.875 502.18 244.375V220.875L507.93 221.25C515.597 221.25 521.347 219.833 525.18 217C529.097 214.25 532.18 209.583 534.43 203L538.805 191.375L491.305 56.75H524.055L552.68 148.5Z" fill="black"/>
<path d="M700.665 113.375L680.04 135.25V192H648.415V10H680.04V95.375L697.54 73.75L750.79 10H789.04L721.415 90.625L792.915 192H755.415L700.665 113.375ZM878.65 194.5C859.4 194.5 843.775 188.458 831.775 176.375C819.858 164.208 813.9 148.042 813.9 127.875V124.125C813.9 110.625 816.483 98.5833 821.65 88C826.9 77.3333 834.233 69.0417 843.65 63.125C853.067 57.2083 863.567 54.25 875.15 54.25C893.567 54.25 907.775 60.125 917.775 71.875C927.858 83.625 932.9 100.25 932.9 121.75V134H844.525C845.442 145.167 849.15 154 855.65 160.5C862.233 167 870.483 170.25 880.4 170.25C894.317 170.25 905.65 164.625 914.4 153.375L930.775 169C925.358 177.083 918.108 183.375 909.025 187.875C900.025 192.292 889.9 194.5 878.65 194.5ZM875.025 78.625C866.692 78.625 859.942 81.5417 854.775 87.375C849.692 93.2083 846.442 101.333 845.025 111.75H902.9V109.5C902.233 99.3333 899.525 91.6667 894.775 86.5C890.025 81.25 883.442 78.625 875.025 78.625ZM1017.51 148.5L1045.01 56.75H1077.39L1023.64 212.5C1015.39 235.25 1001.39 246.625 981.635 246.625C977.218 246.625 972.343 245.875 967.01 244.375V220.875L972.76 221.25C980.427 221.25 986.177 219.833 990.01 217C993.927 214.25 997.01 209.583 999.26 203L1003.64 191.375L956.135 56.75H988.885L1017.51 148.5Z" fill="#B00000"/>
</svg>
